<svg xmlns="http://www.w3.org/2000/svg" viewBox="0 0 50 50">
  <path d="M25 3C21.699219 3 19 5.699219 19 9C19 12.300781 21.699219 15 25 15C28.300781 15 31 12.300781 31 9C31 5.699219 28.300781 3 25 3 Z M 25 19C21.699219 19 19 21.699219 19 25C19 28.300781 21.699219 31 25 31C28.300781 31 31 28.300781 31 25C31 21.699219 28.300781 19 25 19 Z M 25 35C21.699219 35 19 37.699219 19 41C19 44.300781 21.699219 47 25 47C28.300781 47 31 44.300781 31 41C31 37.699219 28.300781 35 25 35Z" fill="#9E9B9B" />
</svg>