<svg xmlns="http://www.w3.org/2000/svg" viewBox="0 0 64 64"><radialGradient id="hGOJzj8L5E~Nhy3sq1Ba_a" cx="36.833" cy="35.917" r="26" gradientUnits="userSpaceOnUse" spreadMethod="reflect"><stop offset="0" stop-color="#afeeff"/><stop offset=".193" stop-color="#bbf1ff"/><stop offset=".703" stop-color="#d7f8ff"/><stop offset="1" stop-color="#e1faff"/></radialGradient><path fill="url(#hGOJzj8L5E~Nhy3sq1Ba_a)" d="M10,8L10,8c2.209,0,4-1.791,4-4v0c0-2.209-1.791-4-4-4h0C7.791,0,6,1.791,6,4v0 C6,6.209,7.791,8,10,8z"/><radialGradient id="hGOJzj8L5E~Nhy3sq1Ba_b" cx="31.417" cy="29.917" r="28.77" gradientUnits="userSpaceOnUse" spreadMethod="reflect"><stop offset="0" stop-color="#afeeff"/><stop offset=".193" stop-color="#bbf1ff"/><stop offset=".703" stop-color="#d7f8ff"/><stop offset="1" stop-color="#e1faff"/></radialGradient><path fill="url(#hGOJzj8L5E~Nhy3sq1Ba_b)" d="M7.5,64L7.5,64c1.933,0,3.5-1.567,3.5-3.5v0c0-1.933-1.567-3.5-3.5-3.5h0 C5.567,57,4,58.567,4,60.5v0C4,62.433,5.567,64,7.5,64z"/><radialGradient id="hGOJzj8L5E~Nhy3sq1Ba_c" cx="32.5" cy="32" r="30.775" gradientUnits="userSpaceOnUse" spreadMethod="reflect"><stop offset="0" stop-color="#afeeff"/><stop offset=".193" stop-color="#bbf1ff"/><stop offset=".703" stop-color="#d7f8ff"/><stop offset="1" stop-color="#e1faff"/></radialGradient><path fill="url(#hGOJzj8L5E~Nhy3sq1Ba_c)" d="M62,20.5L62,20.5c0-2.485-2.015-4.5-4.5-4.5H44c-2.209,0-4-1.791-4-4v0c0-2.209,1.791-4,4-4 h2c2.209,0,4-1.791,4-4v0c0-2.209-1.791-4-4-4L22,0c-2.209,0-4,1.791-4,4v0c0,2.209,1.791,4,4,4h2c1.657,0,3,1.343,3,3v0 c0,1.657-1.343,3-3,3H10.5C8.567,14,7,15.567,7,17.5v0c0,1.933,1.567,3.5,3.5,3.5H13c1.657,0,3,1.343,3,3v0c0,1.657-1.343,3-3,3H8 c-2.761,0-5,2.239-5,5v0c0,2.761,2.239,5,5,5h5.5c1.933,0,3.5,1.567,3.5,3.5v0c0,1.933-1.567,3.5-3.5,3.5H9c-2.209,0-4,1.791-4,4v0 c0,2.209,1.791,4,4,4h8.5c1.381,0,2.5,1.119,2.5,2.5v0c0,1.381-1.119,2.5-2.5,2.5h0c-1.933,0-3.5,1.567-3.5,3.5v0 c0,1.933,1.567,3.5,3.5,3.5h30c1.933,0,3.5-1.567,3.5-3.5v0c0-1.933-1.567-3.5-3.5-3.5H47c-1.105,0-2-0.895-2-2v0 c0-1.105,0.895-2,2-2h7c2.209,0,4-1.791,4-4v0c0-2.209-1.791-4-4-4h-5.5c-1.381,0-2.5-1.119-2.5-2.5v0c0-1.381,1.119-2.5,2.5-2.5 H49c2.209,0,4-1.791,4-4v0c0-2.209-1.791-4-4-4h-1.5c-1.933,0-3.5-1.567-3.5-3.5v0c0-1.933,1.567-3.5,3.5-3.5h10 C59.985,25,62,22.985,62,20.5z"/><radialGradient id="hGOJzj8L5E~Nhy3sq1Ba_d" cx="35.917" cy="35.417" r="27.938" gradientUnits="userSpaceOnUse" spreadMethod="reflect"><stop offset="0" stop-color="#afeeff"/><stop offset=".193" stop-color="#bbf1ff"/><stop offset=".703" stop-color="#d7f8ff"/><stop offset="1" stop-color="#e1faff"/></radialGradient><path fill="url(#hGOJzj8L5E~Nhy3sq1Ba_d)" d="M59,40L59,40c-2.209,0-4-1.791-4-4v0c0-2.209,1.791-4,4-4h0c2.209,0,4,1.791,4,4v0 C63,38.209,61.209,40,59,40z"/><g><path fill="#717171" d="M41.5,14.5c-0.829,0-1.5-0.672-1.5-1.5V8.5C40,7.121,38.654,6,37,6H27c-1.654,0-3,1.121-3,2.5V13 c0,0.828-0.671,1.5-1.5,1.5S21,13.828,21,13V8.5C21,5.468,23.691,3,27,3h10c3.309,0,6,2.468,6,5.5V13 C43,13.828,42.329,14.5,41.5,14.5z"/></g><linearGradient id="hGOJzj8L5E~Nhy3sq1Ba_e" x1="32" x2="32" y1="26.503" y2="64.503" gradientUnits="userSpaceOnUse" spreadMethod="reflect"><stop offset="0" stop-color="#a4a4a4"/><stop offset=".63" stop-color="#7f7f7f"/><stop offset="1" stop-color="#6f6f6f"/><stop offset="1" stop-color="#6f6f6f"/></linearGradient><path fill="url(#hGOJzj8L5E~Nhy3sq1Ba_e)" d="M43,59H21c-4.418,0-8-3.582-8-8V21h38v30C51,55.418,47.418,59,43,59z"/><linearGradient id="hGOJzj8L5E~Nhy3sq1Ba_f" x1="32" x2="32" y1="3.541" y2="31.891" gradientUnits="userSpaceOnUse" spreadMethod="reflect"><stop offset="0" stop-color="#a4a4a4"/><stop offset=".63" stop-color="#7f7f7f"/><stop offset="1" stop-color="#6f6f6f"/></linearGradient><path fill="url(#hGOJzj8L5E~Nhy3sq1Ba_f)" d="M51,21H13c-1.657,0-3-1.343-3-3v-2c0-3.314,2.686-6,6-6h32c3.314,0,6,2.686,6,6v2 C54,19.657,52.657,21,51,21z"/><g><linearGradient id="hGOJzj8L5E~Nhy3sq1Ba_g" x1="32" x2="32" y1="21" y2="49" gradientUnits="userSpaceOnUse" spreadMethod="reflect"><stop offset="0" stop-color="#d8d8d8"/><stop offset=".759" stop-color="#c9c9c9"/><stop offset="1" stop-color="#c3c3c3"/></linearGradient><path fill="url(#hGOJzj8L5E~Nhy3sq1Ba_g)" d="M30,21h4v26c0,1.105-0.895,2-2,2h0c-1.105,0-2-0.895-2-2V21z"/><linearGradient id="hGOJzj8L5E~Nhy3sq1Ba_h" x1="42" x2="42" y1="21" y2="49" gradientUnits="userSpaceOnUse" spreadMethod="reflect"><stop offset="0" stop-color="#d8d8d8"/><stop offset=".759" stop-color="#c9c9c9"/><stop offset="1" stop-color="#c3c3c3"/></linearGradient><path fill="url(#hGOJzj8L5E~Nhy3sq1Ba_h)" d="M40,21h4v26c0,1.105-0.895,2-2,2h0c-1.105,0-2-0.895-2-2V21z"/><g><linearGradient id="hGOJzj8L5E~Nhy3sq1Ba_i" x1="22" x2="22" y1="21" y2="49" gradientUnits="userSpaceOnUse" spreadMethod="reflect"><stop offset="0" stop-color="#d8d8d8"/><stop offset=".759" stop-color="#c9c9c9"/><stop offset="1" stop-color="#c3c3c3"/></linearGradient><path fill="url(#hGOJzj8L5E~Nhy3sq1Ba_i)" d="M20,21h4v26c0,1.105-0.895,2-2,2h0c-1.105,0-2-0.895-2-2V21z"/></g></g></svg>